<?xml version="1.0" standalone="no"?><!DOCTYPE svg PUBLIC "-//W3C//DTD SVG 1.1//EN" "http://www.w3.org/Graphics/SVG/1.1/DTD/svg11.dtd"><svg t="1573636370105" class="icon" viewBox="0 0 1024 1024" version="1.1" xmlns="http://www.w3.org/2000/svg" p-id="9116" xmlns:xlink="http://www.w3.org/1999/xlink" width="200" height="200"><defs><style type="text/css"></style></defs><path d="M255.0784 170.666667h513.8432a31.061333 31.061333 0 0 1 29.422933 21.230933l41.3696 124.1088a31.061333 31.061333 0 0 1-29.422933 40.8576H213.674667A31.061333 31.061333 0 0 1 184.32 316.0064L225.621333 191.8976A31.061333 31.061333 0 0 1 255.0784 170.666667z m11.195733 46.557866l-31.061333 93.0816h553.540267L757.76 217.224533H266.274133zM768 768v-224.938667a23.278933 23.278933 0 1 1 46.557867 0v248.2176a23.278933 23.278933 0 0 1-23.278934 23.278934H232.721067a23.278933 23.278933 0 0 1-23.278934-23.278934v-248.251733a23.278933 23.278933 0 1 1 46.557867 0V768h512z m-256.682667-263.748267a140.970667 140.970667 0 0 1-103.8336-45.704533 140.970667 140.970667 0 0 1-103.8336 45.704533 141.5168 141.5168 0 0 1-121.992533-70.212266 23.278933 23.278933 0 1 1 40.106667-23.620267 94.993067 94.993067 0 0 0 81.885866 47.274667 95.095467 95.095467 0 0 0 83.421867-49.937067 23.278933 23.278933 0 0 1 40.823467 0 95.095467 95.095467 0 0 0 83.421866 49.937067 95.095467 95.095467 0 0 0 83.421867-49.937067 23.278933 23.278933 0 0 1 40.8576 0 95.095467 95.095467 0 0 0 83.421867 49.937067 95.061333 95.061333 0 0 0 82.944-49.152 23.278933 23.278933 0 1 1 40.6528 22.698666 141.6192 141.6192 0 0 1-123.5968 73.0112 140.970667 140.970667 0 0 1-103.867734-45.704533 140.970667 140.970667 0 0 1-103.8336 45.704533z" fill="#2c2c2c" p-id="9117"></path></svg>